<?xml version="1.0" encoding="UTF-8" standalone="no"?>
<svg
   xmlns:dc="http://purl.org/dc/elements/1.1/"
   xmlns:cc="http://creativecommons.org/ns#"
   xmlns:rdf="http://www.w3.org/1999/02/22-rdf-syntax-ns#"
   xmlns:svg="http://www.w3.org/2000/svg"
   xmlns="http://www.w3.org/2000/svg"
   viewBox="0 0 64 64">
  <path
     id="path"
     style="fill:rgb(255,255,255);"
     d="m 32.075133,0.29475216 c -17.636785,0 -31.92178229,14.28499684 -31.92178229,31.92178184 0,14.125388 9.13760999,26.056154 21.82651829,30.28579 1.59609,0.279316 2.194623,-0.678337 2.194623,-1.516284 0,-0.758143 -0.0399,-3.271983 -0.0399,-5.945432 -8.020348,1.476382 -10.095264,-1.955209 -10.733699,-3.75081 -0.359121,-0.917751 -1.915307,-3.750809 -3.271983,-4.508951 -1.1172623,-0.598534 -2.7133523,-2.074916 -0.0399,-2.114818 2.51384,-0.0399 4.30944,2.314329 4.907974,3.271982 2.87296,4.82817 7.461716,3.471494 9.297219,2.633547 0.279315,-2.074915 1.117262,-3.471493 2.035013,-4.269538 -7.102596,-0.798045 -14.524411,-3.551298 -14.524411,-15.76138 0,-3.471494 1.236969,-6.344454 3.271983,-8.578979 -0.319218,-0.798044 -1.43648,-4.070027 0.319218,-8.459272 0,0 2.673449,-0.837947 8.77849,3.271983 2.553743,-0.71824 5.267094,-1.07736 7.980445,-1.07736 2.713352,0 5.426703,0.35912 7.980446,1.07736 6.105041,-4.149832 8.77849,-3.271983 8.77849,-3.271983 1.755698,4.389245 0.638436,7.661228 0.319218,8.459272 2.035013,2.234525 3.271983,5.067583 3.271983,8.578979 0,12.249984 -7.461717,14.963335 -14.564314,15.76138 1.157165,0.997556 2.154721,2.912863 2.154721,5.90553 0,4.269538 -0.0399,7.70113 -0.0399,8.77849 0,0.837947 0.598533,1.835502 2.194622,1.516284 12.609104,-4.229636 21.746714,-16.200304 21.746714,-30.28579 0,-17.636785 -14.284997,-31.92178184 -31.921782,-31.92178184 z"
    />
</svg>
